<svg width="0" height="0" class="hidden">
  <symbol xmlns="http://www.w3.org/2000/svg" viewBox="0 0 512 512" id="dialogue">
    <path d="M440 81.653H168a8 8 0 0 1 0-16h272a8 8 0 0 1 0 16zm0 96h-16a8 8 0 0 1 0-16h16a8 8 0 0 1 0 16zm0 48.002a8.06 8.06 0 0 1-5.66-2.35 8.045 8.045 0 0 1-2.34-5.65c0-2.11.85-4.17 2.34-5.66 1.49-1.49 3.56-2.34 5.66-2.34s4.17.85 5.66 2.34a8.05 8.05 0 0 1 2.34 5.66c0 2.1-.85 4.16-2.34 5.65a8.06 8.06 0 0 1-5.66 2.35zm0-96.002H296a8 8 0 0 1 0-16h144a8 8 0 0 1 0 16zm-176 0h-96a8 8 0 0 1 0-16h96a8 8 0 0 1 0 16z"></path>
    <path d="M455.983 350.347a15.956 15.956 0 0 1-11.297-4.694l-10.343-10.343a7.999 7.999 0 0 1 0-11.314 8 8 0 0 1 11.313 0l10.338 10.338.006-53.408a8 8 0 0 1 6.66-7.887c19.007-3.23 33.34-20.162 33.34-39.386v-176c0-22.056-17.944-40-40-40H152c-22.056 0-40 17.944-40 40v80a8 8 0 0 1-16 0v-80c0-30.878 25.122-56 56-56h304c30.878 0 56 25.122 56 56v176c0 25.064-16.461 46.632-40 53.614v47.072a15.952 15.952 0 0 1-9.877 14.782 16.024 16.024 0 0 1-6.14 1.226z"></path>
    <path d="M344 241.653H72a8 8 0 0 1 0-16h272a8 8 0 0 1 0 16zm0 96H240a8 8 0 0 1 0-16h104a8 8 0 0 1 0 16zm-136 0H72a8 8 0 0 1 0-16h136a8 8 0 0 1 0 16zm136 48H72a8 8 0 0 1 0-16h272a8 8 0 0 1 0 16zm-224-96H72a8 8 0 0 1 0-16h48a8 8 0 0 1 0 16zm224 0H152a8 8 0 0 1 0-16h192a8 8 0 0 1 0 16z"></path>
    <path d="M56.017 510.347a16.02 16.02 0 0 1-6.139-1.226 15.953 15.953 0 0 1-9.877-14.782v-47.072c-23.539-6.982-40-28.55-40-53.614v-176c0-30.878 25.122-56 56-56h304c30.878 0 56 25.122 56 56v176c0 30.878-25.122 56-56 56H123.313l-56 56a15.954 15.954 0 0 1-11.296 4.694zM56 177.653c-22.056 0-40 17.944-40 40v176c0 19.224 14.333 36.156 33.34 39.386a8 8 0 0 1 6.66 7.887v53.406l58.343-58.336a8 8 0 0 1 5.657-2.343h240c22.056 0 40-17.944 40-40v-176c0-22.056-17.944-40-40-40H56z"></path>
  </symbol>
  <symbol xmlns="http://www.w3.org/2000/svg" viewBox="0 0 512 512" id="message-on-phone">
    <path d="M332 280.003a8 8 0 0 0-8 8V432H52V80h88a8 8 0 0 0 0-16H52v-8c0-22.056 17.944-40 40-40h192a8 8 0 0 0 0-16H92C61.122 0 36 25.122 36 56v400c0 30.878 25.122 56 56 56h192c30.878 0 56-25.122 56-56V288.003a8 8 0 0 0-8-8zM284 496H92c-22.056 0-40-17.944-40-40v-8h272v8c0 22.056-17.944 40-40 40z"></path>
    <path d="M204 464h-32a8 8 0 0 0 0 16h32a8 8 0 0 0 0-16zM134.34 34.34A8.068 8.068 0 0 0 132 40c0 2.1.85 4.17 2.34 5.66A8.05 8.05 0 0 0 140 48c2.11 0 4.17-.85 5.66-2.34A8.05 8.05 0 0 0 148 40c0-2.11-.85-4.17-2.34-5.66A8.05 8.05 0 0 0 140 32c-2.11 0-4.17.85-5.66 2.34zM212 136h48a8 8 0 0 0 0-16h-48a8 8 0 0 0 0 16zm208-16H292a8 8 0 0 0 0 16h128a8 8 0 0 0 0-16zm0 40h-48a8 8 0 0 0 0 16h48a8 8 0 0 0 0-16zm-208 16h128a8 8 0 0 0 0-16H212a8 8 0 0 0 0 16zm208-96H212a8 8 0 0 0 0 16h208a8 8 0 0 0 0-16zm0 120H212a8 8 0 0 0 0 16h208a8 8 0 0 0 0-16z"></path>
    <path d="M420 32H212c-30.878 0-56 25.122-56 56v120c0 28.163 20.897 51.537 48 55.43v29.256a15.952 15.952 0 0 0 9.877 14.782A15.956 15.956 0 0 0 231.314 304l40-40H420c30.878 0 56-25.122 56-56V88c0-30.878-25.122-56-56-56zm40 176c0 22.056-17.944 40-40 40H268a8 8 0 0 0-5.657 2.343L220 292.68V256a8 8 0 0 0-8-8c-22.056 0-40-17.944-40-40V88c0-22.056 17.944-40 40-40h208c22.056 0 40 17.944 40 40v120z"></path>
  </symbol>
</svg>