<svg width="0" height="0" class="hidden">
  <symbol xmlns="http://www.w3.org/2000/svg" viewBox="0 0 25.64 25.64" id="back">
    <path d="M10.385 1.499a.78.78 0 0 0-.848.168L.228 8.98a.777.777 0 0 0 0 1.1l9.309 7.278a.772.772 0 0 0 .848.17.764.764 0 0 0 .465-.719V12.45c9.955 0 14.309 2.808 13.646 11.751C28.713 9.893 20.619 6.659 10.85 6.659V2.217a.764.764 0 0 0-.465-.718z" fill="#030104"></path>
  </symbol>
  <symbol xmlns="http://www.w3.org/2000/svg" viewBox="0 0 512 512" id="cloud">
    <path d="M457 331.723c-25.127 0-46.356 16.943-52.904 40H351v-58.555h54.213c58.883 0 106.787-47.904 106.787-106.787 0-47.211-31.312-88.685-75.764-102.193-13.437-53.804-62.005-92.393-118.254-92.393-21.805 0-42.693 5.623-61.127 16.366C237.332 10.307 211.733.277 184.836.277 127.143.277 79.989 46.268 78.107 103.51 32.446 116.273 0 158.08 0 206.381c0 58.883 47.904 106.787 106.787 106.787H161v58.555h-53.096c-6.547-23.057-27.777-40-52.904-40-30.327 0-55 24.673-55 55s24.673 55 55 55c25.127 0 46.356-16.943 52.904-40H176c8.284 0 15-6.716 15-15v-73.555h50v90.651c-23.057 6.547-40 27.777-40 52.904 0 30.327 24.673 55 55 55s55-24.673 55-55c0-25.127-16.943-46.356-40-52.904v-90.651h50v73.555c0 8.284 6.716 15 15 15h68.096c6.547 23.057 27.777 40 52.904 40 30.327 0 55-24.673 55-55s-24.673-55-55-55zm-402 80c-13.785 0-25-11.215-25-25s11.215-25 25-25 25 11.215 25 25-11.215 25-25 25zm226 45c0 13.785-11.215 25-25 25s-25-11.215-25-25 11.215-25 25-25 25 11.215 25 25zM106.787 283.168c-42.34 0-76.787-34.446-76.787-76.787 0-37.843 28.207-70.506 65.61-75.976 7.893-1.154 13.501-8.284 12.765-16.226a77.48 77.48 0 0 1-.327-7.116c0-42.339 34.447-76.785 76.787-76.785 22.59 0 43.893 9.82 58.445 26.942 5.109 6.011 14 7.037 20.345 2.349 15.732-11.628 34.528-17.774 54.356-17.774 45.628 0 83.573 33.479 90.666 77.03a15 15 0 0 0 11.829 12.29c35.649 7.217 61.523 38.87 61.523 75.266 0 42.341-34.447 76.787-76.787 76.787H106.787zM457 411.723c-13.785 0-25-11.215-25-25s11.215-25 25-25 25 11.215 25 25-11.215 25-25 25z"></path>
  </symbol>
  <symbol xmlns="http://www.w3.org/2000/svg" viewBox="0 0 511.626 511.627" id="forward">
    <path d="M506.206 179.012L360.025 32.834c-3.617-3.617-7.898-5.426-12.847-5.426s-9.233 1.809-12.847 5.426c-3.617 3.619-5.428 7.902-5.428 12.85v73.089H264.95c-135.716 0-218.984 38.354-249.823 115.06C5.042 259.335 0 291.03 0 328.907c0 31.594 12.087 74.514 36.259 128.762.57 1.335 1.566 3.614 2.996 6.849a603.829 603.829 0 0 0 3.854 8.565c1.146 2.471 2.384 4.565 3.715 6.276 2.282 3.237 4.948 4.859 7.994 4.859 2.855 0 5.092-.951 6.711-2.854 1.615-1.902 2.424-4.284 2.424-7.132 0-1.718-.238-4.236-.715-7.569-.476-3.333-.715-5.564-.715-6.708-.953-12.938-1.429-24.653-1.429-35.114 0-19.223 1.668-36.449 4.996-51.675 3.333-15.229 7.948-28.407 13.85-39.543 5.901-11.14 13.512-20.745 22.841-28.835 9.325-8.09 19.364-14.702 30.118-19.842 10.756-5.141 23.413-9.186 37.974-12.135 14.56-2.95 29.215-4.997 43.968-6.14s31.455-1.711 50.109-1.711h63.953v73.091c0 4.948 1.807 9.232 5.421 12.847 3.62 3.613 7.901 5.424 12.847 5.424 4.948 0 9.232-1.811 12.854-5.424l146.178-146.183c3.617-3.617 5.424-7.898 5.424-12.847-.001-4.948-1.807-9.232-5.421-12.856z"></path>
  </symbol>
  <symbol xmlns="http://www.w3.org/2000/svg" viewBox="0 0 512 512" id="info">
    <circle cx="256" cy="378.5" r="25"></circle>
    <path d="M256 0C114.516 0 0 114.497 0 256c0 141.484 114.497 256 256 256 141.484 0 256-114.497 256-256C512 114.516 397.503 0 256 0zm0 472c-119.377 0-216-96.607-216-216 0-119.377 96.607-216 216-216 119.377 0 216 96.607 216 216 0 119.377-96.607 216-216 216z"></path>
    <path d="M256 128.5c-44.112 0-80 35.888-80 80 0 11.046 8.954 20 20 20s20-8.954 20-20c0-22.056 17.944-40 40-40s40 17.944 40 40-17.944 40-40 40c-11.046 0-20 8.954-20 20v50c0 11.046 8.954 20 20 20s20-8.954 20-20v-32.531c34.466-8.903 60-40.26 60-77.469 0-44.112-35.888-80-80-80z"></path>
  </symbol>
</svg>