<svg width="0" height="0" class="hidden">
  <symbol xmlns="http://www.w3.org/2000/svg" viewBox="0 0 512 512" id="answer">
    <path d="M346 319c-5.522 0-10 4.477-10 10v69c0 27.57-22.43 50-50 50H178.032c-5.521 0-9.996 4.473-10 9.993l-.014 19.882-23.868-23.867a10.003 10.003 0 0 0-9.171-6.008H70c-27.57 0-50-22.43-50-50V244c0-27.57 22.43-50 50-50h101c5.522 0 10-4.477 10-10s-4.478-10-10-10H70c-38.598 0-70 31.402-70 70v154c0 38.598 31.402 70 70 70h59.858l41.071 41.071a9.997 9.997 0 0 0 10.894 2.169 10 10 0 0 0 6.177-9.233l.024-34.007H286c38.598 0 70-31.402 70-70v-69c0-5.523-4.478-10-10-10z"></path>
    <path d="M366.655 0h-25.309C261.202 0 196 65.202 196 145.346s65.202 145.345 145.345 145.345h25.309c12.509 0 24.89-1.589 36.89-4.729l37.387 37.366A10 10 0 0 0 458 316.255v-57.856c15.829-12.819 28.978-29.012 38.206-47.102C506.687 190.751 512 168.562 512 145.346 512 65.202 446.798 0 366.655 0zm75.328 245.535a10.003 10.003 0 0 0-3.983 7.988v38.6l-24.471-24.458a10.003 10.003 0 0 0-10.006-2.485c-11.903 3.658-24.307 5.512-36.868 5.512h-25.309c-69.117 0-125.346-56.23-125.346-125.346S272.23 20 341.346 20h25.309C435.771 20 492 76.23 492 145.346c0 39.731-18.23 76.249-50.017 100.189z"></path>
    <path d="M399.033 109.421c-1.443-20.935-18.319-37.811-39.255-39.254-11.868-.815-23.194 3.188-31.863 11.281-8.55 7.981-13.453 19.263-13.453 30.954 0 5.523 4.478 10 10 10s10-4.477 10-10c0-6.259 2.522-12.06 7.1-16.333 4.574-4.269 10.552-6.382 16.842-5.948 11.028.76 19.917 9.649 20.677 20.676.768 11.137-6.539 20.979-17.373 23.403-8.778 1.964-14.908 9.592-14.908 18.549v24.025c0 5.523 4.478 10 10 10 5.523 0 10-4.477 9.999-10v-23.226c20.15-4.868 33.669-23.306 32.234-44.127zM363.87 209.26c-1.86-1.86-4.44-2.93-7.07-2.93s-5.21 1.07-7.07 2.93a10.076 10.076 0 0 0-2.93 7.07c0 2.64 1.071 5.22 2.93 7.08 1.86 1.86 4.44 2.92 7.07 2.92s5.21-1.06 7.07-2.92a10.1 10.1 0 0 0 2.93-7.08c0-2.63-1.071-5.21-2.93-7.07zM275 310H64c-5.522 0-10 4.477-10 10s4.478 10 10 10h211c5.523 0 10-4.477 10-10s-4.478-10-10-10zm7.069 58.93C280.21 367.07 277.63 366 275 366s-5.21 1.07-7.07 2.93c-1.861 1.86-2.93 4.44-2.93 7.07s1.07 5.21 2.93 7.07c1.86 1.86 4.44 2.93 7.07 2.93s5.21-1.07 7.069-2.93A10.055 10.055 0 0 0 285 376c0-2.63-1.071-5.21-2.931-7.07zM235.667 366H64c-5.522 0-10 4.477-10 10s4.478 10 10 10h171.667c5.523 0 10-4.477 10-10s-4.478-10-10-10zM210 254H64c-5.522 0-10 4.477-10 10s4.478 10 10 10h146c5.523 0 10-4.477 10-10s-4.478-10-10-10z"></path>
  </symbol>
  <symbol xmlns="http://www.w3.org/2000/svg" viewBox="0 0 438.529 438.528" id="clear">
    <path d="M433.109 23.694c-3.614-3.612-7.898-5.424-12.848-5.424-4.948 0-9.226 1.812-12.847 5.424l-37.113 36.835c-20.365-19.226-43.684-34.123-69.948-44.684C274.091 5.283 247.056.003 219.266.003c-52.344 0-98.022 15.843-137.042 47.536-39.021 31.689-64.715 73.035-77.087 124.048v1.997c0 2.474.903 4.617 2.712 6.423 1.809 1.809 3.949 2.712 6.423 2.712h56.814c4.189 0 7.042-2.19 8.566-6.565 7.993-19.032 13.035-30.166 15.131-33.403 13.322-21.698 31.023-38.734 53.103-51.106 22.082-12.371 45.873-18.559 71.376-18.559 38.261 0 71.473 13.039 99.645 39.115l-39.406 39.397c-3.607 3.617-5.421 7.902-5.421 12.851 0 4.948 1.813 9.231 5.421 12.847 3.621 3.617 7.905 5.424 12.854 5.424h127.906c4.949 0 9.233-1.807 12.848-5.424 3.613-3.616 5.42-7.898 5.42-12.847V36.542c0-4.949-1.796-9.23-5.42-12.848zm-10.856 232.119h-54.816c-4.188 0-7.043 2.187-8.562 6.566-7.99 19.034-13.038 30.163-15.129 33.4-13.326 21.693-31.028 38.735-53.102 51.106-22.083 12.375-45.874 18.556-71.378 18.556-18.461 0-36.259-3.423-53.387-10.273-17.13-6.858-32.454-16.567-45.966-29.13l39.115-39.112c3.615-3.613 5.424-7.901 5.424-12.847 0-4.948-1.809-9.236-5.424-12.847-3.617-3.62-7.898-5.431-12.847-5.431H18.274c-4.952 0-9.235 1.811-12.851 5.431C1.807 264.844 0 269.132 0 274.08v127.907c0 4.945 1.807 9.232 5.424 12.847 3.619 3.61 7.902 5.428 12.851 5.428 4.948 0 9.229-1.817 12.847-5.428l36.829-36.833c20.367 19.41 43.542 34.355 69.523 44.823 25.981 10.472 52.866 15.701 80.653 15.701 52.155 0 97.643-15.845 136.471-47.534 38.828-31.688 64.333-73.042 76.52-124.05.191-.38.281-1.047.281-1.995 0-2.478-.907-4.612-2.715-6.427-1.81-1.799-3.953-2.706-6.431-2.706z"></path>
  </symbol>
  <symbol viewBox="-21 -47 682.667 682" xmlns="http://www.w3.org/2000/svg" id="phrase">
    <path d="M552.012-1.332H87.988C39.473-1.332 0 38.133 0 86.656V370.63c0 48.414 39.3 87.816 87.676 87.988V587.48l185.191-128.863h279.145c48.515 0 87.988-39.472 87.988-87.988V86.656c0-48.523-39.473-87.988-87.988-87.988zm50.488 371.96c0 27.837-22.648 50.49-50.488 50.49h-290.91l-135.926 94.585v-94.586H87.988c-27.84 0-50.488-22.652-50.488-50.488V86.656c0-27.843 22.648-50.488 50.488-50.488h464.024c27.84 0 50.488 22.645 50.488 50.488zm0 0"></path>
    <path d="M171.293 131.172h297.414v37.5H171.293zm0 80h297.414v37.5H171.293zm0 80h297.414v37.5H171.293zm0 0"></path>
  </symbol>
  <symbol xmlns="http://www.w3.org/2000/svg" viewBox="0 0 496 496" id="sms">
    <path d="M424 0H72C36.704 0 8 28.704 8 64v288c0 35.296 28.704 64 64 64v64c0 6.208 3.584 11.872 9.216 14.496A16.232 16.232 0 0 0 88 496a16.06 16.06 0 0 0 10.24-3.712L189.792 416H424c35.296 0 64-28.704 64-64V64c0-35.296-28.704-64-64-64zm32 352c0 17.632-14.336 32-32 32H184c-3.744 0-7.36 1.312-10.24 3.712L104 445.824V400c0-8.832-7.168-16-16-16H72c-17.664 0-32-14.368-32-32V64c0-17.632 14.336-32 32-32h352c17.664 0 32 14.368 32 32v288z"></path>
    <path d="M120 192c-8.8 0-16-7.168-16-16s7.2-16 16-16h32c8.832 0 16-7.168 16-16s-7.168-16-16-16h-32c-26.464 0-48 21.536-48 48s21.536 48 48 48c8.8 0 16 7.168 16 16s-7.2 16-16 16H88c-8.832 0-16 7.168-16 16s7.168 16 16 16h32c26.464 0 48-21.536 48-48s-21.536-48-48-48zm256 0c-8.8 0-16-7.168-16-16s7.2-16 16-16h32c8.832 0 16-7.168 16-16s-7.168-16-16-16h-32c-26.464 0-48 21.536-48 48s21.536 48 48 48c8.8 0 16 7.168 16 16s-7.2 16-16 16h-32c-8.832 0-16 7.168-16 16s7.168 16 16 16h32c26.464 0 48-21.536 48-48s-21.536-48-48-48zm-92.32-63.584c-7.392-1.664-14.688 1.76-17.984 8.416L248 172.224l-17.696-35.392c-3.296-6.656-10.624-10.08-17.984-8.416-7.232 1.696-12.32 8.16-12.32 15.584v128c0 8.832 7.168 16 16 16s16-7.168 16-16v-60.224l1.696 3.36c5.44 10.848 23.2 10.848 28.64 0l1.664-3.36V272c0 8.832 7.168 16 16 16s16-7.168 16-16V144c0-7.424-5.088-13.888-12.32-15.584z"></path>
  </symbol>
</svg>